<?xml version="1.0" encoding="UTF-8"?>
<!DOCTYPE svg PUBLIC "-//W3C//DTD SVG 1.1//EN" "http://www.w3.org/Graphics/SVG/1.1/DTD/svg11.dtd">
<svg xmlns="http://www.w3.org/2000/svg" version="1.1" width="500px" height="500px" style="shape-rendering:geometricPrecision; text-rendering:geometricPrecision; image-rendering:optimizeQuality; fill-rule:evenodd; clip-rule:evenodd" xmlns:xlink="http://www.w3.org/1999/xlink">
<g><path style="opacity:0.926" fill="#964600" d="M 101.5,156.5 C 103.144,156.286 104.644,156.62 106,157.5C 107.273,163.094 108.773,168.594 110.5,174C 104.518,178.991 98.1849,183.491 91.5,187.5C 88.0773,179.142 85.9106,170.476 85,161.5C 90.6127,159.893 96.1127,158.226 101.5,156.5 Z"/></g>
<g><path style="opacity:0.941" fill="#964600" d="M 116.5,170.5 C 117.376,170.369 118.043,170.702 118.5,171.5C 113.915,179.005 109.082,186.338 104,193.5C 103.333,194.167 103.333,194.833 104,195.5C 111.755,191.372 119.589,187.372 127.5,183.5C 128.521,184.002 128.688,184.668 128,185.5C 124.434,188.699 120.6,191.533 116.5,194C 114.993,194.837 114.493,196.004 115,197.5C 123.781,191.442 132.948,190.942 142.5,196C 150.903,201.499 155.403,209.332 156,219.5C 159.506,217.332 163.339,216.165 167.5,216C 172.823,215.501 178.156,215.334 183.5,215.5C 183.201,212.358 181.534,210.191 178.5,209C 171.518,207.722 165.018,208.889 159,212.5C 156.007,208.522 153.507,204.189 151.5,199.5C 165.99,191.182 180.657,190.682 195.5,198C 199.666,201.165 202.166,205.332 203,210.5C 203.333,227.167 203.667,243.833 204,260.5C 205.8,258.683 207.966,257.516 210.5,257C 223.714,253.955 233.88,258.122 241,269.5C 250.029,257.821 261.862,253.655 276.5,257C 284.078,258.951 290.078,263.117 294.5,269.5C 303.688,257.691 315.688,253.525 330.5,257C 338.122,259.301 343.955,263.801 348,270.5C 348.5,255.837 348.667,241.17 348.5,226.5C 336.495,226.333 324.495,226.5 312.5,227C 316.6,233.067 322.266,235.067 329.5,233C 332.267,231.107 335.267,230.107 338.5,230C 341.13,233.632 344.13,236.965 347.5,240C 343.736,244.216 339.069,246.883 333.5,248C 318.104,251.497 305.437,247.33 295.5,235.5C 287.821,247.009 277.155,251.176 263.5,248C 261.101,247.269 258.935,246.102 257,244.5C 256.51,245.793 256.343,247.127 256.5,248.5C 250.167,248.5 243.833,248.5 237.5,248.5C 237.5,235.833 237.5,223.167 237.5,210.5C 231.575,209.875 227.409,212.208 225,217.5C 223.601,227.768 223.101,238.102 223.5,248.5C 217.167,248.5 210.833,248.5 204.5,248.5C 204.5,230.167 204.5,211.833 204.5,193.5C 210.5,193.5 216.5,193.5 222.5,193.5C 221.601,199.89 222.935,200.724 226.5,196C 229.905,194.456 233.405,193.289 237,192.5C 237.499,186.509 237.666,180.509 237.5,174.5C 244.167,174.5 250.833,174.5 257.5,174.5C 257.334,181.841 257.5,189.174 258,196.5C 273.249,189.604 285.749,192.937 295.5,206.5C 307.333,192.299 321.666,189.132 338.5,197C 342.719,199.552 345.886,203.052 348,207.5C 348.499,202.845 348.666,198.179 348.5,193.5C 354.833,193.5 361.167,193.5 367.5,193.5C 367.34,195.199 367.506,196.866 368,198.5C 372.697,194.453 378.197,192.453 384.5,192.5C 384.5,198.5 384.5,204.5 384.5,210.5C 377.409,208.967 372.243,211.3 369,217.5C 368.333,235.833 368.333,254.167 369,272.5C 371.5,270 374,267.5 376.5,265C 373.98,263.237 371.647,261.237 369.5,259C 378.303,261.476 386.803,264.976 395,269.5C 390.816,261.51 385.816,253.844 380,246.5C 379.312,245.668 379.479,245.002 380.5,244.5C 392.561,255.894 404.228,267.561 415.5,279.5C 419.94,282.054 424.606,284.054 429.5,285.5C 430.986,285.103 432.486,284.77 434,284.5C 437.25,285.793 440.584,286.793 444,287.5C 450.94,284.762 457.773,284.928 464.5,288C 466.377,290.251 467.877,292.751 469,295.5C 471.333,294.167 473.667,292.833 476,291.5C 476.458,294.096 475.625,296.263 473.5,298C 469.296,299.135 465.963,301.468 463.5,305C 458.314,307.226 453.314,306.893 448.5,304C 444.947,299.204 440.947,294.87 436.5,291C 430.807,289.051 425.14,289.051 419.5,291C 420.675,303.838 427.509,311.004 440,312.5C 442.246,317.625 442.913,322.958 442,328.5C 439.081,334.025 434.581,335.858 428.5,334C 425.272,332.437 423.105,329.937 422,326.5C 421.667,321.167 421.333,315.833 421,310.5C 420.163,308.156 418.829,306.156 417,304.5C 417.187,298.981 415.687,293.981 412.5,289.5C 405.195,284.695 398.029,279.695 391,274.5C 388.705,276.08 387.372,278.08 387,280.5C 394.5,290 402,299.5 409.5,309C 401.479,309.832 393.479,309.665 385.5,308.5C 381.137,303.142 376.803,297.809 372.5,292.5C 371.186,293.313 370.019,294.313 369,295.5C 368.501,300.155 368.334,304.821 368.5,309.5C 361.833,309.5 355.167,309.5 348.5,309.5C 348.666,304.821 348.499,300.155 348,295.5C 343.751,303.883 336.918,308.717 327.5,310C 313.467,312.328 302.3,307.828 294,296.5C 286.185,308 275.352,312.5 261.5,310C 252.613,308.639 245.78,304.139 241,296.5C 234.7,307.565 225.2,312.065 212.5,310C 208.873,309.436 205.707,307.936 203,305.5C 202.51,306.793 202.343,308.127 202.5,309.5C 196.5,309.5 190.5,309.5 184.5,309.5C 184.667,287.831 184.5,266.164 184,244.5C 182.2,246.317 180.034,247.484 177.5,248C 169.8,249.334 162.467,248.334 155.5,245C 153.47,243.104 151.803,240.937 150.5,238.5C 142.604,247.741 132.604,250.908 120.5,248C 118.254,246.961 116.087,245.794 114,244.5C 113.51,245.793 113.343,247.127 113.5,248.5C 107.167,248.5 100.833,248.5 94.5,248.5C 94.8324,236.149 94.499,223.815 93.5,211.5C 86.3772,216.157 82.8772,222.824 83,231.5C 78.9142,236.347 77.7475,241.847 79.5,248C 79.0828,258.773 73.7495,263.106 63.5,261C 61.2739,259.773 59.7739,257.939 59,255.5C 58.3388,250.442 58.6721,245.442 60,240.5C 73.3442,237.995 79.8442,229.995 79.5,216.5C 72.0572,215.436 65.3905,217.103 59.5,221.5C 57.0251,225.142 54.3585,228.642 51.5,232C 44.3292,235.98 37.9958,234.98 32.5,229C 28.9338,228.3 26.1005,226.467 24,223.5C 23.2506,222.365 23.4173,221.365 24.5,220.5C 26.109,221.888 27.9423,222.888 30,223.5C 31.9459,221.119 33.7792,218.619 35.5,216C 42.0554,212.89 48.722,212.724 55.5,215.5C 58.4853,215.007 61.152,213.84 63.5,212C 68.3785,213.16 73.0451,212.494 77.5,210C 91.2819,197.717 104.282,184.551 116.5,170.5 Z M 317.5,207.5 C 324.732,205.782 329.732,208.282 332.5,215C 325.5,215.667 318.5,215.667 311.5,215C 312.69,211.75 314.69,209.25 317.5,207.5 Z M 122.5,208.5 C 130.681,208.348 135.014,212.348 135.5,220.5C 135.773,228.223 132.107,232.557 124.5,233.5C 114.559,230.062 111.725,223.396 116,213.5C 117.805,211.174 119.972,209.508 122.5,208.5 Z M 264.5,208.5 C 273.179,207.848 277.846,211.848 278.5,220.5C 277.381,230.539 272.047,234.372 262.5,232C 254.203,223.341 254.869,215.507 264.5,208.5 Z M 42.5,217.5 C 50.3543,218.367 52.021,221.867 47.5,228C 44.5,230 41.5,230 38.5,228C 36.6041,226.192 36.1041,224.025 37,221.5C 38.4998,219.531 40.3331,218.198 42.5,217.5 Z M 172.5,226.5 C 176.5,226.5 180.5,226.5 184.5,226.5C 184.302,232.534 181.135,235.867 175,236.5C 167.791,234.409 166.957,231.075 172.5,226.5 Z M 67.5,243.5 C 72.2476,243.081 74.5809,245.248 74.5,250C 73.898,256.712 70.7314,258.545 65,255.5C 62.6957,250.855 63.529,246.855 67.5,243.5 Z M 210.5,271.5 C 220.737,271.24 225.237,276.24 224,286.5C 220.9,294.756 215.4,296.922 207.5,293C 201.468,284.722 202.468,277.556 210.5,271.5 Z M 264.5,271.5 C 276.928,272.331 280.762,278.664 276,290.5C 269.28,297.161 263.28,296.494 258,288.5C 255.803,280.929 257.969,275.263 264.5,271.5 Z M 317.5,271.5 C 330.837,272.496 334.671,279.162 329,291.5C 323.837,296.669 318.67,296.669 313.5,291.5C 308.816,283.585 310.15,276.919 317.5,271.5 Z M 454.5,289.5 C 459.09,289.285 462.09,291.285 463.5,295.5C 461.448,300.858 457.781,302.358 452.5,300C 448.299,295.629 448.966,292.129 454.5,289.5 Z M 428.5,316.5 C 436.31,317.114 438.81,321.114 436,328.5C 431.137,331.411 427.804,330.078 426,324.5C 425.388,321.389 426.221,318.723 428.5,316.5 Z"/></g>
<g><path style="opacity:0.89" fill="#974600" d="M 401.5,246.5 C 408.716,249.106 415.716,252.273 422.5,256C 416.978,258.592 411.311,260.925 405.5,263C 404.365,263.749 403.365,263.583 402.5,262.5C 399.607,258.048 397.274,253.381 395.5,248.5C 397.786,248.405 399.786,247.738 401.5,246.5 Z"/></g>
</svg>
